<?xml version="1.0" encoding="utf-8"?>
<!-- Generator: Adobe Illustrator 22.0.1, SVG Export Plug-In . SVG Version: 6.00 Build 0)  -->
<svg version="1.1" id="Layer_1" xmlns="http://www.w3.org/2000/svg" xmlns:xlink="http://www.w3.org/1999/xlink" x="0px" y="0px"
	 viewBox="0 0 343 114.6" style="enable-background:new 0 0 343 114.6;" xml:space="preserve">
<style type="text/css">
	.st0{fill:#FFFFFF;}
	.st1{fill:#FFFFFF;stroke:#000000;stroke-miterlimit:10;}
</style>
<g>
	<path class="st0" d="M149.7,59.2h-8.1l-3.5-17.1l-3.5,17.1h-8.1L119.9,34h7.6l3.2,14.9l3-14.9h8.7l3,14.9l3.2-14.9h7.6L149.7,59.2z
		"/>
	<path class="st0" d="M182.1,59.2H175v-9.6h-8.7v9.6h-7.1V34h7.1v9.3h8.7V34h7.1V59.2z"/>
	<path class="st0" d="M193.6,59.2h-7.1V34h7.1V59.2z"/>
	<path class="st0" d="M210.5,40.3v18.9h-7.1V40.3h-6.9V34h20.9v6.3H210.5z"/>
	<path class="st0" d="M227.4,43.3h9.5v6.3h-9.5v3.3h10.4v6.3h-17.6V34h17.6v6.3h-10.4V43.3z"/>
	<path class="st0" d="M265.2,59.2h-2.1l-6.7-22.8l-6.7,22.8h-2.1L240.2,34h1.9l6.6,22.9l6.7-22.9h2.1l6.7,22.9l6.5-22.9h1.9
		L265.2,59.2z"/>
	<path class="st0" d="M286.8,33.6c6.9,0,11.4,5.4,11.4,12.9v0.3c0,7.5-4.6,12.9-11.4,12.9h-0.4c-6.9,0-11.4-5.4-11.4-12.9v-0.3
		c0-7.5,4.6-12.9,11.4-12.9H286.8z M286.4,35.3c-5.8,0-9.6,4.7-9.6,11.2v0.4c0,6.5,3.9,11.2,9.6,11.2h0.3c5.8,0,9.6-4.7,9.6-11.2
		v-0.4c0-6.5-3.9-11.2-9.6-11.2H286.4z"/>
	<path class="st0" d="M319.7,59.2h-15V34h1.9v23.5h13.1V59.2z"/>
	<path class="st0" d="M326.6,45.4h13.1v1.7h-13.1v12.1h-1.9V34h16v1.7h-14.1V45.4z"/>
	<path class="st0" d="M127.5,62.2c2.2,0,4.3,0.9,5.7,2.5l-2.4,2.6c-1.4-1.1-2-1.4-3.2-1.4h-0.1c-1.9,0-3.1,1.5-3.1,4v0.1
		c0,2.4,1.2,4,3.1,4h0.1c1.2,0,1.8-0.3,3.2-1.4l2.3,2.5c-1.4,1.7-3.4,2.6-5.7,2.6c-4.3,0-7.3-3.1-7.3-7.6v-0.2
		C120,65.3,123.1,62.2,127.5,62.2L127.5,62.2z"/>
	<path class="st0" d="M150,74.2l-0.9,3h-4.4l5.4-14.7h4.4l5.4,14.7h-4.4l-0.9-3H150z M152.3,67.3l-1,3.3h2.1L152.3,67.3z"/>
	<path class="st0" d="M176.2,68h5.6v3.7h-5.6v5.5h-4.2V62.5h10.3v3.7h-6.1V68z"/>
	<path class="st0" d="M198.9,67.9h5.6v3.7h-5.6v1.9h6.1v3.7h-10.2V62.5H205v3.7h-6.1V67.9z"/>
	<path class="st0" d="M243,76.4c-1.5,0.8-2.9,1.1-4.2,1.1c-3.3,0-5.3-1.7-5.3-4.4c0-1.7,0.9-2.9,3-4.1c-0.9-1.2-1.2-2.1-1.2-3
		c0-2.3,2-3.8,5-3.8c2.9,0,5,1.8,5,4.3c0,1.4-0.8,2.6-2.6,3.8l1.1,1.2c0.7-0.6,1.6-1.3,2.5-2.1l2.6,2.9c-0.9,0.8-1.7,1.5-2.5,2.1
		l2.6,2.9h-5.2L243,76.4z M240.5,73.6l-1.4-1.6c-1.3,0.6-1.4,0.8-1.4,1.3c0,0.5,0.4,0.8,1.2,0.8C239.4,74,239.9,73.9,240.5,73.6z
		 M239.4,66.2c0,0.2,0.1,0.4,0.7,1.1c1-0.5,1.1-0.7,1.1-1.1c0-0.4-0.3-0.6-0.9-0.6C239.8,65.6,239.4,65.8,239.4,66.2z"/>
	<path class="st0" d="M290.2,72.8c0,2.9-1.8,4.4-5.4,4.4h-6.9V62.5h6.7c3.3,0,4.9,1.2,4.9,3.7c0,1.4-0.5,2.4-1.6,3
		C289.5,69.8,290.2,71,290.2,72.8z M284.1,66.2h-2.1v2h2.1c0.8,0,1.2-0.3,1.2-1C285.4,66.5,285,66.2,284.1,66.2z M284.5,73.5
		c0.9,0,1.4-0.4,1.4-1.1c0-0.7-0.5-1.1-1.5-1.1h-2.4v2.2H284.5z"/>
	<path class="st0" d="M306.7,74.2l-0.9,3h-4.4l5.4-14.7h4.4l5.4,14.7h-4.4l-0.9-3H306.7z M309,67.3l-1,3.3h2.1L309,67.3z"/>
	<path class="st0" d="M332.9,72.1v5.1h-4.2V62.5h6.9c3.6,0,5.3,1.6,5.3,4.8c0,2.1-0.8,3.5-2.4,4.2l3,5.6h-4.7l-2.6-5.1H332.9z
		 M335.3,68.5c0.9,0,1.4-0.4,1.4-1.1c0-0.8-0.5-1.2-1.6-1.2h-2.2v2.3H335.3z"/>
</g>
<path class="st0" d="M114,90.9c0.1-0.2,0.3-0.3,0.4-0.5c-0.4,0.3-0.9,0.6-1.3,0.9c-41.5,19-49.3,1.8-49.3,1.8
	c-7.2-7.4,7.4-23.9,12.9-24.2c12.1-0.8,27.6,1.5,33.6-8.3c4.9-8-14-11.4-20-14.4c-6.1-3-5.3-9.8-5.3-9.8
	c-5.3-9.8-19.3-15.1-19.3-15.1l1.5-16.7L56.5,18.2L48.9,0c-9.8,15.9-11.4,34.8-11.4,34.8C29.8,46.4,8.4,63.5,2.2,68.3l0.5,0.9
	c-0.2-0.2-0.3-0.4-0.5-0.6c8.6,26.1,33.2,44.9,62.2,44.9C84.2,113.6,101.9,104.8,114,90.9L114,90.9C114,90.9,114,90.9,114,90.9z"/>
<path class="st1" d="M114.4,90.4"/>
</svg>
