<svg xmlns="http://www.w3.org/2000/svg" viewBox="0 0 112.17 113.56"><defs><style>.cls-1{fill:#fff;}</style></defs><title>Asset 1</title><g id="Layer_2" data-name="Layer 2"><path class="cls-1" d="M111.78 90.86c.13-.15.26-.29.39-.45-.42.29-.87.58-1.32.88-41.54 19-49.33 1.83-49.33 1.83-7.2-7.37 7.48-23.89 12.87-24.23C86.51 68.13 102 70.4 108 60.56c4.9-8-14-11.35-20-14.38s-5.3-9.84-5.3-9.84C77.42 26.5 63.37 21.2 63.37 21.2l1.52-16.66-10.6 13.63L46.72 0c-9.84 15.9-11.36 34.82-11.36 34.82C27.64 46.41 6.23 63.47 0 68.31l.53.88-.47-.58a65.45 65.45 0 0 0 111.67 22.31l.09-.08z" id="Layer_2-2" data-name="Layer 2"/></g></svg>